<svg width="17" height="17" viewBox="0 0 17 17" fill="none" xmlns="http://www.w3.org/2000/svg">
<path d="M13.9674 10.0251V8.20409C13.9655 6.79492 13.4381 5.4371 12.4883 4.39612C11.5385 3.35513 10.2346 2.70581 8.83151 2.57512V1.40763C8.83151 1.25628 8.77139 1.11113 8.66437 1.00412C8.55735 0.897097 8.41221 0.836975 8.26086 0.836975C8.10951 0.836975 7.96437 0.897097 7.85735 1.00412C7.75033 1.11113 7.69021 1.25628 7.69021 1.40763V2.57524C6.28712 2.70593 4.98323 3.35522 4.03343 4.39619C3.08363 5.43715 2.55623 6.79494 2.55434 8.20409V10.025C1.91036 10.1573 1.3317 10.5077 0.915906 11.0169C0.500111 11.5262 0.272602 12.1632 0.271729 12.8207C0.272227 13.2746 0.452753 13.7097 0.7737 14.0307C1.09465 14.3516 1.5298 14.5321 1.98369 14.5326H5.46529C5.59687 15.177 5.94698 15.7561 6.45639 16.172C6.9658 16.5878 7.60323 16.815 8.26086 16.815C8.91848 16.815 9.55592 16.5878 10.0653 16.172C10.5747 15.7561 10.9249 15.177 11.0564 14.5326H14.538C14.9919 14.5321 15.4271 14.3516 15.748 14.0307C16.069 13.7097 16.2495 13.2746 16.25 12.8207C16.2491 12.1633 16.0216 11.5262 15.6058 11.017C15.19 10.5078 14.6113 10.1575 13.9674 10.0251ZM3.69564 8.20409C3.69715 7.00741 4.1732 5.86017 5.01939 5.01398C5.86557 4.1678 7.01281 3.69175 8.2095 3.69024H8.31222C9.5089 3.69175 10.6561 4.1678 11.5023 5.01398C12.3485 5.86017 12.8246 7.00741 12.8261 8.20409V9.96741H3.69564V8.20409ZM8.26086 15.6739C7.90798 15.6728 7.56408 15.5626 7.27639 15.3582C6.98869 15.1539 6.77131 14.8655 6.65407 14.5326H9.86765C9.75041 14.8655 9.53302 15.1539 9.24533 15.3582C8.95764 15.5626 8.61374 15.6728 8.26086 15.6739ZM14.538 13.3913H1.98369C1.83237 13.3912 1.68727 13.3311 1.58027 13.2241C1.47327 13.1171 1.41312 12.972 1.41303 12.8207C1.41353 12.3668 1.59406 11.9316 1.915 11.6107C2.23595 11.2897 2.6711 11.1092 3.12499 11.1087H13.3967C13.8506 11.1092 14.2858 11.2897 14.6067 11.6107C14.9277 11.9316 15.1082 12.3668 15.1087 12.8207C15.1086 12.972 15.0484 13.1171 14.9414 13.2241C14.8344 13.3311 14.6894 13.3912 14.538 13.3913Z" fill="#13B497"/>
</svg>
