<svg  viewBox="0 0 369 60" fill="none" xmlns="http://www.w3.org/2000/svg">
<path fill-rule="evenodd" clip-rule="evenodd" d="M296.216 6.65097C276.792 10.814 259.4 19.6006 236.97 32.2828C225.565 38.7317 215.595 42.1291 206.178 43.4463C196.76 44.7635 188.027 43.9816 179.14 42.2312C172.914 41.0047 166.518 39.2794 159.761 37.4566C156.951 36.6988 154.079 35.9242 151.131 35.1616C141.03 32.5484 129.836 30.0174 116.63 28.5822C95.7171 26.3095 72.4614 30.8672 51.7678 37.5933C31.1013 44.3106 13.1995 53.1215 3.07808 59.1574L0.780273 56.076C11.1617 49.8851 29.3584 40.9364 50.3531 34.1125C71.3207 27.2973 95.2888 22.532 117.13 24.9056C130.644 26.3743 142.075 28.9632 152.282 31.6038C155.346 32.3963 158.282 33.1884 161.123 33.9549C167.807 35.7579 173.967 37.4196 180.031 38.6142C188.602 40.3025 196.789 41.0108 205.538 39.7871C214.287 38.5634 223.727 35.3889 234.757 29.1524C257.198 16.4639 275.098 7.36864 295.251 3.04931C315.45 -1.27978 337.72 -0.776277 368.906 5.37249L368.014 8.98929C337.187 2.91119 315.595 2.49767 296.216 6.65097Z" fill="#13B497"/>
</svg>
