<svg width="45" height="35" viewBox="0 0 45 35" fill="none" xmlns="http://www.w3.org/2000/svg">
<g clip-path="url(#clip0_229_8)">
<path d="M45 0H35.8724H2.58015L2.21948 2.20319H5.65968L0 34.9721H2.19174L7.82367 2.20319H35.5117H38.9519L33.2922 34.9721H35.484L41.1159 2.20319H44.6116L45 0Z" fill="#13B497"/>
<path d="M26.1745 6.92032C25.4532 7.53387 25.037 8.25896 24.8983 9.15139C24.8705 9.31872 24.8705 9.45816 24.8705 9.62549L27.8668 32.3825V32.4382C27.8391 32.5219 27.7836 32.6335 27.6726 32.7171C27.4507 32.9123 27.2287 33.0239 27.0068 33.0518C26.8958 33.0797 26.8403 33.1076 26.7571 33.1076H21.8188L12.5247 33.0518L13.0518 29.9283H18.767L19.1554 27.7251H13.4402L16.7972 8.20319H22.7065L23.095 6H15.0493L10 35.2271L21.4303 35.2829H26.3687C26.5906 35.2829 26.8403 35.255 27.1178 35.1992C27.7836 35.0319 28.394 34.7251 28.8934 34.251C29.5037 33.7211 29.8921 33.1076 30.0031 32.4382C30.0308 32.243 30.0308 32.0757 30.0031 31.8805L27.0623 9.09561C27.0623 9.06772 27.0623 9.03984 27.0623 9.01195C27.0623 8.98406 27.0623 8.98407 27.0623 8.92829C27.1178 8.73307 27.2287 8.56573 27.3952 8.42629C27.6172 8.23107 27.8668 8.14742 28.1443 8.14742H34.1369L34.4975 6H28.5327C27.6449 6.02789 26.8681 6.33467 26.1745 6.92032Z" fill="#13B497"/>
</g>
<defs>
<clipPath id="clip0_229_8">
<rect width="45" height="35" fill="white"/>
</clipPath>
</defs>
</svg>
