<svg width="23" height="22" viewBox="0 0 23 22" fill="none" xmlns="http://www.w3.org/2000/svg">
<path d="M20.4604 0.848877H3.31682C2.64742 0.849612 2.00565 1.11586 1.53231 1.58919C1.05897 2.06253 0.792727 2.7043 0.791992 3.3737V15.1562C0.792727 15.8256 1.05897 16.4674 1.53231 16.9407C2.00565 17.4141 2.64742 17.6803 3.31682 17.6811C3.53999 17.6812 3.75398 17.7699 3.91178 17.9277C4.06958 18.0855 4.15829 18.2995 4.15843 18.5227V20.3168C4.15843 20.6215 4.24112 20.9204 4.39768 21.1818C4.55423 21.4431 4.77879 21.6571 5.04741 21.8009C5.31602 21.9446 5.61861 22.0128 5.92292 21.9981C6.22723 21.9834 6.52183 21.8863 6.77533 21.7173L12.6173 17.8224C12.7554 17.7299 12.9179 17.6807 13.0841 17.6811H17.187C17.7383 17.68 18.2742 17.4994 18.7136 17.1664C19.1531 16.8335 19.472 16.3664 19.6222 15.8359L22.8965 4.05011C22.9998 3.67481 23.0152 3.28074 22.9413 2.89856C22.8674 2.51637 22.7064 2.15639 22.4707 1.84663C22.2349 1.53687 21.9309 1.28568 21.5822 1.11263C21.2336 0.939571 20.8497 0.849312 20.4604 0.848877ZM21.2732 3.60304L18.0005 15.3847C17.9499 15.5614 17.8432 15.7168 17.6964 15.8275C17.5496 15.9381 17.3708 15.9979 17.187 15.9978H13.0841C12.5855 15.9972 12.098 16.1448 11.6836 16.4219L5.84165 20.3168V18.5227C5.84091 17.8533 5.57467 17.2115 5.10133 16.7382C4.62799 16.2648 3.98622 15.9986 3.31682 15.9978C3.09365 15.9977 2.87966 15.909 2.72186 15.7512C2.56406 15.5934 2.47534 15.3794 2.47521 15.1562V3.3737C2.47534 3.15054 2.56406 2.93655 2.72186 2.77874C2.87966 2.62094 3.09365 2.53223 3.31682 2.5321H20.4604C20.5905 2.53243 20.7187 2.56277 20.8352 2.62076C20.9516 2.67875 21.0531 2.76283 21.1318 2.86646C21.2104 2.97008 21.2641 3.09045 21.2886 3.21821C21.3132 3.34597 21.3079 3.47766 21.2732 3.60304Z" />
<g clip-path="url(#clip0_230_8)">
<path d="M4.84161 7.42333H9.04965C9.27286 7.42333 9.48693 7.33466 9.64476 7.17683C9.80259 7.019 9.89126 6.80493 9.89126 6.58172C9.89126 6.35851 9.80259 6.14445 9.64476 5.98661C9.48693 5.82878 9.27286 5.74011 9.04965 5.74011H4.84161C4.6184 5.74011 4.40433 5.82878 4.2465 5.98661C4.08867 6.14445 4 6.35851 4 6.58172C4 6.80493 4.08867 7.019 4.2465 7.17683C4.40433 7.33466 4.6184 7.42333 4.84161 7.42333Z" />
</g>
<g clip-path="url(#clip1_230_8)">
<path d="M12.4161 9.10657H4.84161C4.6184 9.10657 4.40433 9.19524 4.2465 9.35307C4.08867 9.5109 4 9.72497 4 9.94818C4 10.1714 4.08867 10.3855 4.2465 10.5433C4.40433 10.7011 4.6184 10.7898 4.84161 10.7898H12.4161C12.6393 10.7898 12.8534 10.7011 13.0112 10.5433C13.169 10.3855 13.2577 10.1714 13.2577 9.94818C13.2577 9.72497 13.169 9.5109 13.0112 9.35307C12.8534 9.19524 12.6393 9.10657 12.4161 9.10657Z" />
</g>
<defs>
<clipPath id="clip0_230_8">
<rect width="6" height="3" fill="white" transform="translate(4 5)"/>
</clipPath>
<clipPath id="clip1_230_8">
<rect width="10" height="2" fill="white" transform="translate(4 9)"/>
</clipPath>
</defs>
</svg>
