<svg width="444" height="86" viewBox="0 0 444 86" fill="none" xmlns="http://www.w3.org/2000/svg">
<path fill-rule="evenodd" clip-rule="evenodd" d="M356.159 9.57023C332.751 15.5767 311.792 28.254 284.762 46.552C271.017 55.8565 259.002 60.7583 247.653 62.6588C236.304 64.5593 225.779 63.4311 215.07 60.9055C207.567 59.136 199.859 56.6467 191.716 54.0168C188.33 52.9235 184.869 51.8058 181.317 50.7055C169.144 46.9352 155.654 43.2834 139.739 41.2127C114.537 37.9337 86.5114 44.5096 61.5735 54.2141C36.6682 63.9058 15.0947 76.6182 2.89727 85.3268L0.128174 80.881C12.6389 71.9487 34.5678 59.0375 59.8685 49.1918C85.1366 39.3589 114.021 32.4835 140.341 35.9081C156.628 38.0271 170.403 41.7625 182.704 45.5723C186.396 46.7158 189.934 47.8586 193.358 48.9645C201.413 51.5659 208.836 53.9634 216.144 55.687C226.473 58.1229 236.339 59.1448 246.882 57.3793C257.425 55.6137 268.802 51.0334 282.094 42.0354C309.138 23.7283 330.709 10.6057 354.996 4.37373C379.337 -1.87231 406.176 -1.14585 443.758 7.72563L442.683 12.944C405.533 4.17445 379.512 3.57783 356.159 9.57023Z" fill="#13B497"/>
<path d="M139.775 41.1366C88.2526 34.5224 25.9558 67.6804 1.24777 85.0862L0 104.858H442.955V13.2874C368.224 -4.11841 337.237 10.6765 283.163 46.7935C229.089 82.9105 204.178 49.4044 139.775 41.1366Z" fill="url(#paint0_linear_236_21)"/>
<g filter="url(#filter0_d_236_21)">
<path d="M323.717 24.0194C323.717 29.553 319.527 34.0388 314.358 34.0388C309.19 34.0388 305 29.553 305 24.0194C305 18.4859 309.19 14 314.358 14C319.527 14 323.717 18.4859 323.717 24.0194Z" fill="#13B497"/>
<path d="M322.491 24.0194C322.491 28.9562 318.772 32.813 314.358 32.813C309.944 32.813 306.226 28.9562 306.226 24.0194C306.226 19.0827 309.944 15.2258 314.358 15.2258C318.772 15.2258 322.491 19.0827 322.491 24.0194Z" stroke="#2F363D" stroke-width="2.45154"/>
</g>
<defs>
<filter id="filter0_d_236_21" x="290.291" y="4.19385" width="48.135" height="49.4572" filterUnits="userSpaceOnUse" color-interpolation-filters="sRGB">
<feFlood flood-opacity="0" result="BackgroundImageFix"/>
<feColorMatrix in="SourceAlpha" type="matrix" values="0 0 0 0 0 0 0 0 0 0 0 0 0 0 0 0 0 0 127 0" result="hardAlpha"/>
<feOffset dy="4.90307"/>
<feGaussianBlur stdDeviation="7.35461"/>
<feColorMatrix type="matrix" values="0 0 0 0 0 0 0 0 0 0 0 0 0 0 0 0 0 0 0.38 0"/>
<feBlend mode="normal" in2="BackgroundImageFix" result="effect1_dropShadow_236_21"/>
<feBlend mode="normal" in="SourceGraphic" in2="effect1_dropShadow_236_21" result="shape"/>
</filter>
<linearGradient id="paint0_linear_236_21" x1="221.478" y1="6" x2="221.478" y2="99.146" gradientUnits="userSpaceOnUse">
<stop stop-color="#13B497" stop-opacity="0.35"/>
<stop offset="1" stop-color="#13B497" stop-opacity="0"/>
</linearGradient>
</defs>
</svg>
