<?xml version="1.0" standalone="no"?>
<!DOCTYPE svg PUBLIC "-//W3C//DTD SVG 20010904//EN"
 "http://www.w3.org/TR/2001/REC-SVG-20010904/DTD/svg10.dtd">
<svg version="1.0" xmlns="http://www.w3.org/2000/svg"
 width="470.000000pt" height="470.000000pt" viewBox="0 0 470.000000 470.000000"
 preserveAspectRatio="xMidYMid meet">

<g transform="translate(0.000000,470.000000) scale(0.100000,-0.100000)"
fill="#000000" stroke="none">
<path d="M2324 4547 c-8 -4 -56 -12 -107 -17 -50 -6 -117 -15 -147 -20 -30 -6
-72 -14 -93 -17 -20 -3 -40 -9 -43 -14 -3 -5 -18 -9 -34 -9 -16 0 -32 -4 -35
-10 -3 -5 -17 -10 -30 -10 -13 0 -27 -4 -30 -10 -3 -5 -15 -10 -26 -10 -10 0
-28 -4 -39 -10 -11 -5 -29 -14 -40 -20 -11 -5 -27 -10 -35 -10 -20 0 -19 -22
4 -63 11 -19 25 -45 33 -58 7 -13 15 -26 18 -29 3 -3 11 -15 18 -27 6 -13 18
-33 25 -45 6 -13 14 -25 17 -28 3 -3 12 -18 20 -35 8 -16 26 -48 41 -70 14
-22 29 -47 32 -55 17 -39 67 -116 81 -125 11 -7 22 -6 36 3 11 6 29 12 39 12
11 0 23 5 26 10 3 6 19 10 34 10 15 0 31 4 36 9 17 16 115 23 325 24 202 0
299 -7 332 -24 9 -5 28 -9 42 -9 14 0 26 -4 26 -10 0 -5 11 -10 25 -10 14 0
33 -4 43 -9 9 -5 28 -13 42 -18 67 -27 134 -57 140 -63 3 -3 19 -12 35 -20 49
-24 145 -90 222 -152 76 -62 227 -223 258 -276 11 -18 23 -32 27 -32 4 0 8 -7
8 -15 0 -8 5 -15 10 -15 6 0 10 -9 10 -20 0 -18 2 -19 23 -8 12 7 24 15 27 18
3 3 15 11 28 18 12 6 32 18 45 25 12 6 24 14 27 17 3 3 19 12 35 20 17 8 41
22 55 31 14 9 42 26 63 38 20 11 54 31 75 42 20 12 48 29 62 38 14 9 42 25 62
36 20 10 34 23 32 27 -3 5 -10 5 -16 2 -7 -4 -8 -2 -4 4 6 10 -8 46 -24 62 -3
3 -11 17 -19 33 -8 15 -18 27 -23 27 -4 0 -8 6 -8 14 0 8 -3 16 -7 18 -5 2
-25 26 -46 53 -54 71 -274 293 -344 346 -32 24 -59 47 -61 52 -2 4 -8 7 -13 7
-6 0 -19 9 -31 20 -12 11 -28 20 -35 20 -7 0 -13 4 -13 9 0 5 -8 11 -17 14
-18 6 -74 38 -83 47 -6 6 -213 108 -250 122 -14 6 -33 14 -42 19 -10 5 -27 9
-37 9 -11 0 -23 5 -26 10 -3 6 -17 10 -30 10 -13 0 -26 4 -29 9 -3 5 -20 11
-38 14 -18 4 -49 9 -68 12 -19 4 -44 10 -55 15 -11 5 -40 11 -65 15 -170 22
-220 27 -343 33 -76 4 -145 3 -153 -1z"/>
<path d="M4300 3306 c-8 -7 -40 -27 -70 -43 -30 -16 -74 -41 -97 -56 -24 -15
-45 -27 -47 -27 -3 0 -24 -12 -48 -27 -68 -44 -81 -51 -123 -74 -22 -12 -48
-28 -57 -37 -10 -8 -18 -12 -18 -8 0 4 -7 1 -15 -7 -8 -9 -20 -17 -26 -19 -7
-2 -4 -24 10 -68 77 -233 84 -602 17 -815 -9 -28 -21 -66 -27 -85 -5 -19 -18
-55 -29 -80 -10 -25 -21 -52 -24 -60 -4 -8 -14 -28 -25 -45 -10 -16 -28 -47
-40 -68 -64 -114 -117 -180 -234 -295 -102 -100 -188 -172 -207 -172 -6 0 -10
-4 -10 -8 0 -13 -137 -88 -230 -127 -86 -36 -185 -68 -255 -82 l-40 -9 -3
-313 -2 -314 57 7 c201 22 540 139 711 245 208 128 235 149 399 306 121 116
201 208 273 315 24 36 52 77 62 92 29 44 156 306 150 312 -2 3 2 16 10 28 14
22 40 101 54 163 4 17 9 35 13 40 3 6 7 19 7 30 3 39 28 145 33 145 3 0 7 32
9 71 1 40 5 76 9 82 8 14 12 377 3 377 -4 0 -10 35 -14 78 -10 118 -40 272
-66 337 -5 11 -11 29 -14 40 -13 52 -64 179 -72 182 -5 2 -16 -3 -24 -11z"/>
</g>
</svg>
